<svg width="44" height="44" viewBox="0 0 44 44" fill="none" xmlns="http://www.w3.org/2000/svg">
<path d="M20.9538 3.21975C21.2831 2.20631 22.7169 2.20631 23.0462 3.21975L26.6923 14.4415C26.8396 14.8948 27.262 15.2016 27.7385 15.2016L39.5378 15.2016C40.6034 15.2016 41.0464 16.5652 40.1844 17.1915L30.6385 24.127C30.253 24.4071 30.0917 24.9036 30.2389 25.3568L33.8851 36.5786C34.2144 37.5921 33.0545 38.4348 32.1924 37.8085L22.6466 30.873C22.261 30.5929 21.739 30.5929 21.3534 30.873L11.8076 37.8085C10.9455 38.4348 9.7856 37.5921 10.1149 36.5786L13.7611 25.3568C13.9083 24.9036 13.747 24.4071 13.3615 24.127L3.81564 17.1915C2.95356 16.5652 3.39661 15.2016 4.46221 15.2016L16.2615 15.2016C16.738 15.2016 17.1604 14.8948 17.3077 14.4415L20.9538 3.21975Z" fill="#F0EFFF"/>
</svg>
